<svg xmlns="http://www.w3.org/2000/svg" viewBox="0 0 900 420">
  <rect width="900" height="420" rx="16" fill="#0f172a"/>
  <text x="450" y="44" text-anchor="middle" fill="#fff" font-size="26" font-weight="700" font-family="Segoe UI,Arial,sans-serif">Terraform Workflow</text>
  <rect x="50" y="170" width="150" height="80" rx="12" fill="#7c3aed"/>
  <text x="125" y="205" text-anchor="middle" fill="#fff" font-size="16" font-weight="700" font-family="Segoe UI,Arial,sans-serif">Write</text>
  <text x="125" y="225" text-anchor="middle" fill="#ddd" font-size="11" font-family="Segoe UI,Arial,sans-serif">.tf files (HCL)</text>
  <polygon points="200,210 250,205 250,215" fill="#60a5fa"/>
  <rect x="260" y="170" width="150" height="80" rx="12" fill="#1e40af"/>
  <text x="335" y="205" text-anchor="middle" fill="#fff" font-size="16" font-weight="700" font-family="Segoe UI,Arial,sans-serif">Init</text>
  <text x="335" y="225" text-anchor="middle" fill="#bfdbfe" font-size="11" font-family="Segoe UI,Arial,sans-serif">Download Providers</text>
  <polygon points="410,210 460,205 460,215" fill="#60a5fa"/>
  <rect x="470" y="170" width="150" height="80" rx="12" fill="#b45309"/>
  <text x="545" y="205" text-anchor="middle" fill="#fff" font-size="16" font-weight="700" font-family="Segoe UI,Arial,sans-serif">Plan</text>
  <text x="545" y="225" text-anchor="middle" fill="#fde68a" font-size="11" font-family="Segoe UI,Arial,sans-serif">Preview Changes</text>
  <polygon points="620,210 670,205 670,215" fill="#60a5fa"/>
  <rect x="680" y="170" width="170" height="80" rx="12" fill="#047857"/>
  <text x="765" y="205" text-anchor="middle" fill="#fff" font-size="16" font-weight="700" font-family="Segoe UI,Arial,sans-serif">Apply</text>
  <text x="765" y="225" text-anchor="middle" fill="#a7f3d0" font-size="11" font-family="Segoe UI,Arial,sans-serif">Create Resources</text>
  <rect x="250" y="310" width="400" height="55" rx="8" fill="#1e293b" stroke="#ef4444" stroke-width="2"/>
  <text x="450" y="340" text-anchor="middle" fill="#ef4444" font-size="16" font-weight="700" font-family="Segoe UI,Arial,sans-serif">terraform destroy</text>
  <text x="450" y="355" text-anchor="middle" fill="#94a3b8" font-size="11" font-family="Segoe UI,Arial,sans-serif">Tear down all managed infrastructure</text>
  <rect x="250" y="90" width="400" height="50" rx="8" fill="#1e293b" stroke="#334155" stroke-width="1"/>
  <text x="450" y="120" text-anchor="middle" fill="#38bdf8" font-size="14" font-weight="700" font-family="Segoe UI,Arial,sans-serif">terraform.tfstate — Tracks Real Infrastructure</text>
</svg>
