<svg xmlns="http://www.w3.org/2000/svg" viewBox="0 0 900 420">
  <rect width="900" height="420" rx="16" fill="#0f172a"/>
  <text x="450" y="44" text-anchor="middle" fill="#fff" font-size="26" font-weight="700" font-family="Segoe UI,Arial,sans-serif">RabbitMQ + MassTransit — Message Broker</text>
  <rect x="50" y="120" width="160" height="70" rx="10" fill="#3b82f6"/>
  <text x="130" y="155" text-anchor="middle" fill="#fff" font-size="15" font-weight="700" font-family="Segoe UI,Arial,sans-serif">Producer A</text>
  <text x="130" y="175" text-anchor="middle" fill="#bfdbfe" font-size="10" font-family="Segoe UI,Arial,sans-serif">Order Service</text>
  <rect x="50" y="210" width="160" height="70" rx="10" fill="#3b82f6"/>
  <text x="130" y="245" text-anchor="middle" fill="#fff" font-size="15" font-weight="700" font-family="Segoe UI,Arial,sans-serif">Producer B</text>
  <text x="130" y="265" text-anchor="middle" fill="#bfdbfe" font-size="10" font-family="Segoe UI,Arial,sans-serif">Payment Service</text>
  <line x1="210" y1="155" x2="320" y2="210" stroke="#f59e0b" stroke-width="2"/>
  <line x1="210" y1="245" x2="320" y2="210" stroke="#f59e0b" stroke-width="2"/>
  <rect x="320" y="100" width="260" height="220" rx="14" fill="#f97316" fill-opacity="0.12" stroke="#f97316" stroke-width="2"/>
  <text x="450" y="135" text-anchor="middle" fill="#f97316" font-size="18" font-weight="700" font-family="Segoe UI,Arial,sans-serif">RabbitMQ</text>
  <rect x="340" y="150" width="220" height="35" rx="6" fill="#1e293b"/>
  <text x="450" y="173" text-anchor="middle" fill="#4ade80" font-size="13" font-weight="600" font-family="Segoe UI,Arial,sans-serif">Exchange (Routing)</text>
  <rect x="340" y="200" width="220" height="35" rx="6" fill="#1e293b"/>
  <text x="450" y="223" text-anchor="middle" fill="#38bdf8" font-size="13" font-weight="600" font-family="Segoe UI,Arial,sans-serif">Queue: orders</text>
  <rect x="340" y="250" width="220" height="35" rx="6" fill="#1e293b"/>
  <text x="450" y="273" text-anchor="middle" fill="#a78bfa" font-size="13" font-weight="600" font-family="Segoe UI,Arial,sans-serif">Queue: notifications</text>
  <line x1="580" y1="155" x2="690" y2="155" stroke="#4ade80" stroke-width="2"/>
  <line x1="580" y1="245" x2="690" y2="245" stroke="#4ade80" stroke-width="2"/>
  <rect x="690" y="120" width="160" height="70" rx="10" fill="#047857"/>
  <text x="770" y="155" text-anchor="middle" fill="#fff" font-size="15" font-weight="700" font-family="Segoe UI,Arial,sans-serif">Consumer A</text>
  <text x="770" y="175" text-anchor="middle" fill="#a7f3d0" font-size="10" font-family="Segoe UI,Arial,sans-serif">Fulfillment</text>
  <rect x="690" y="210" width="160" height="70" rx="10" fill="#047857"/>
  <text x="770" y="245" text-anchor="middle" fill="#fff" font-size="15" font-weight="700" font-family="Segoe UI,Arial,sans-serif">Consumer B</text>
  <text x="770" y="265" text-anchor="middle" fill="#a7f3d0" font-size="10" font-family="Segoe UI,Arial,sans-serif">Email Service</text>
  <rect x="250" y="350" width="400" height="40" rx="8" fill="#1e293b"/>
  <text x="450" y="375" text-anchor="middle" fill="#94a3b8" font-size="13" font-family="Segoe UI,Arial,sans-serif">MassTransit abstracts RabbitMQ for .NET / Java / Python</text>
</svg>
