<svg xmlns="http://www.w3.org/2000/svg" viewBox="0 0 900 520">
  <rect width="900" height="520" rx="16" fill="#0a0f1a"/>
  <text x="450" y="44" text-anchor="middle" fill="#fff" font-size="24" font-weight="700" font-family="Segoe UI,Arial,sans-serif">Flutter Project Structure (Feature-First)</text>

  <!-- Root -->
  <rect x="350" y="72" width="200" height="40" rx="8" fill="#1e293b" stroke="#54C5F8" stroke-width="2"/>
  <text x="450" y="98" text-anchor="middle" fill="#54C5F8" font-size="15" font-weight="700" font-family="Segoe UI,Arial,sans-serif">my_app/</text>

  <!-- Lines from root -->
  <line x1="350" y1="112" x2="100" y2="155" stroke="#475569" stroke-width="1.5"/>
  <line x1="410" y1="112" x2="300" y2="155" stroke="#475569" stroke-width="1.5"/>
  <line x1="450" y1="112" x2="450" y2="155" stroke="#475569" stroke-width="1.5"/>
  <line x1="490" y1="112" x2="600" y2="155" stroke="#475569" stroke-width="1.5"/>
  <line x1="550" y1="112" x2="790" y2="155" stroke="#475569" stroke-width="1.5"/>

  <!-- Native dirs -->
  <rect x="30" y="155" width="140" height="38" rx="8" fill="#374151"/>
  <text x="100" y="179" text-anchor="middle" fill="#94a3b8" font-size="12" font-family="Segoe UI,Arial,sans-serif">android/ ios/ win/</text>

  <!-- lib/ -->
  <rect x="230" y="155" width="140" height="38" rx="8" fill="#1e293b" stroke="#4ade80" stroke-width="2"/>
  <text x="300" y="180" text-anchor="middle" fill="#4ade80" font-size="14" font-weight="700" font-family="Segoe UI,Arial,sans-serif">lib/</text>

  <!-- test/ -->
  <rect x="390" y="155" width="120" height="38" rx="8" fill="#374151"/>
  <text x="450" y="180" text-anchor="middle" fill="#94a3b8" font-size="12" font-family="Segoe UI,Arial,sans-serif">test/</text>

  <!-- assets/ -->
  <rect x="540" y="155" width="120" height="38" rx="8" fill="#374151"/>
  <text x="600" y="180" text-anchor="middle" fill="#94a3b8" font-size="12" font-family="Segoe UI,Arial,sans-serif">assets/</text>

  <!-- pubspec -->
  <rect x="720" y="155" width="140" height="38" rx="8" fill="#374151"/>
  <text x="790" y="180" text-anchor="middle" fill="#94a3b8" font-size="12" font-family="Segoe UI,Arial,sans-serif">pubspec.yaml</text>

  <!-- Lines from lib/ -->
  <line x1="260" y1="193" x2="110" y2="240" stroke="#4ade80" stroke-width="1.5"/>
  <line x1="280" y1="193" x2="280" y2="240" stroke="#4ade80" stroke-width="1.5"/>
  <line x1="300" y1="193" x2="450" y2="240" stroke="#4ade80" stroke-width="1.5"/>
  <line x1="330" y1="193" x2="640" y2="240" stroke="#4ade80" stroke-width="1.5"/>
  <line x1="340" y1="193" x2="810" y2="240" stroke="#4ade80" stroke-width="1.5"/>

  <!-- main.dart -->
  <rect x="40" y="240" width="140" height="36" rx="7" fill="#1e293b"/>
  <text x="110" y="263" text-anchor="middle" fill="#60a5fa" font-size="12" font-family="Segoe UI,Arial,sans-serif">main.dart</text>

  <!-- core/ -->
  <rect x="210" y="240" width="140" height="36" rx="7" fill="#1e293b" stroke="#fbbf24" stroke-width="1.5"/>
  <text x="280" y="263" text-anchor="middle" fill="#fbbf24" font-size="13" font-weight="600" font-family="Segoe UI,Arial,sans-serif">core/</text>

  <!-- features/ -->
  <rect x="380" y="240" width="140" height="36" rx="7" fill="#1e293b" stroke="#f472b6" stroke-width="1.5"/>
  <text x="450" y="263" text-anchor="middle" fill="#f472b6" font-size="13" font-weight="600" font-family="Segoe UI,Arial,sans-serif">features/</text>

  <!-- shared/ -->
  <rect x="570" y="240" width="140" height="36" rx="7" fill="#1e293b" stroke="#22d3ee" stroke-width="1.5"/>
  <text x="640" y="263" text-anchor="middle" fill="#22d3ee" font-size="13" font-weight="600" font-family="Segoe UI,Arial,sans-serif">shared/</text>

  <!-- routing/ -->
  <rect x="740" y="240" width="140" height="36" rx="7" fill="#1e293b" stroke="#a78bfa" stroke-width="1.5"/>
  <text x="810" y="263" text-anchor="middle" fill="#a78bfa" font-size="13" font-weight="600" font-family="Segoe UI,Arial,sans-serif">routing/</text>

  <!-- core children -->
  <line x1="240" y1="276" x2="110" y2="310" stroke="#475569" stroke-width="1"/>
  <line x1="260" y1="276" x2="230" y2="310" stroke="#475569" stroke-width="1"/>
  <line x1="280" y1="276" x2="330" y2="310" stroke="#475569" stroke-width="1"/>

  <rect x="40" y="310" width="130" height="30" rx="6" fill="#252b3b"/>
  <text x="105" y="330" text-anchor="middle" fill="#fbbf24" font-size="11" font-family="Segoe UI,Arial,sans-serif">constants/</text>
  <rect x="180" y="310" width="100" height="30" rx="6" fill="#252b3b"/>
  <text x="230" y="330" text-anchor="middle" fill="#fbbf24" font-size="11" font-family="Segoe UI,Arial,sans-serif">network/</text>
  <rect x="290" y="310" width="100" height="30" rx="6" fill="#252b3b"/>
  <text x="340" y="330" text-anchor="middle" fill="#fbbf24" font-size="11" font-family="Segoe UI,Arial,sans-serif">storage/</text>

  <!-- features children -->
  <line x1="420" y1="276" x2="420" y2="310" stroke="#475569" stroke-width="1"/>
  <line x1="450" y1="276" x2="510" y2="310" stroke="#475569" stroke-width="1"/>
  <line x1="480" y1="276" x2="600" y2="310" stroke="#475569" stroke-width="1"/>

  <rect x="380" y="310" width="90" height="30" rx="6" fill="#252b3b"/>
  <text x="425" y="330" text-anchor="middle" fill="#f472b6" font-size="11" font-family="Segoe UI,Arial,sans-serif">auth/</text>
  <rect x="480" y="310" width="100" height="30" rx="6" fill="#252b3b"/>
  <text x="530" y="330" text-anchor="middle" fill="#f472b6" font-size="11" font-family="Segoe UI,Arial,sans-serif">products/</text>
  <rect x="590" y="310" width="90" height="30" rx="6" fill="#252b3b"/>
  <text x="635" y="330" text-anchor="middle" fill="#f472b6" font-size="11" font-family="Segoe UI,Arial,sans-serif">orders/</text>

  <!-- Feature inner layers -->
  <line x1="530" y1="340" x2="460" y2="370" stroke="#475569" stroke-width="1"/>
  <line x1="530" y1="340" x2="560" y2="370" stroke="#475569" stroke-width="1"/>
  <line x1="530" y1="340" x2="660" y2="370" stroke="#475569" stroke-width="1"/>

  <rect x="400" y="370" width="110" height="30" rx="6" fill="#16a34a"/>
  <text x="455" y="390" text-anchor="middle" fill="#fff" font-size="11" font-weight="600" font-family="Segoe UI,Arial,sans-serif">data/</text>
  <rect x="520" y="370" width="110" height="30" rx="6" fill="#2563eb"/>
  <text x="575" y="390" text-anchor="middle" fill="#fff" font-size="11" font-weight="600" font-family="Segoe UI,Arial,sans-serif">domain/</text>
  <rect x="640" y="370" width="120" height="30" rx="6" fill="#9333ea"/>
  <text x="700" y="390" text-anchor="middle" fill="#fff" font-size="11" font-weight="600" font-family="Segoe UI,Arial,sans-serif">presentation/</text>

  <!-- data detail -->
  <rect x="400" y="410" width="110" height="24" rx="5" fill="#1e293b"/>
  <text x="455" y="427" text-anchor="middle" fill="#94a3b8" font-size="10" font-family="Segoe UI,Arial,sans-serif">models, repos, api</text>

  <rect x="520" y="410" width="110" height="24" rx="5" fill="#1e293b"/>
  <text x="575" y="427" text-anchor="middle" fill="#94a3b8" font-size="10" font-family="Segoe UI,Arial,sans-serif">entities, usecases</text>

  <rect x="640" y="410" width="120" height="24" rx="5" fill="#1e293b"/>
  <text x="700" y="427" text-anchor="middle" fill="#94a3b8" font-size="10" font-family="Segoe UI,Arial,sans-serif">pages, widgets, providers</text>

  <!-- Legend -->
  <rect x="30" y="460" width="12" height="12" rx="3" fill="#fbbf24"/>
  <text x="48" y="471" fill="#94a3b8" font-size="11" font-family="Segoe UI,Arial,sans-serif">core/</text>
  <rect x="100" y="460" width="12" height="12" rx="3" fill="#f472b6"/>
  <text x="118" y="471" fill="#94a3b8" font-size="11" font-family="Segoe UI,Arial,sans-serif">features/</text>
  <rect x="195" y="460" width="12" height="12" rx="3" fill="#16a34a"/>
  <text x="213" y="471" fill="#94a3b8" font-size="11" font-family="Segoe UI,Arial,sans-serif">Data Layer</text>
  <rect x="290" y="460" width="12" height="12" rx="3" fill="#2563eb"/>
  <text x="308" y="471" fill="#94a3b8" font-size="11" font-family="Segoe UI,Arial,sans-serif">Domain Layer</text>
  <rect x="400" y="460" width="12" height="12" rx="3" fill="#9333ea"/>
  <text x="418" y="471" fill="#94a3b8" font-size="11" font-family="Segoe UI,Arial,sans-serif">Presentation Layer</text>
</svg>
