<svg xmlns="http://www.w3.org/2000/svg" viewBox="0 0 900 420">
  <rect width="900" height="420" rx="16" fill="#0f172a"/>
  <text x="450" y="44" text-anchor="middle" fill="#fff" font-size="26" font-weight="700" font-family="Segoe UI,Arial,sans-serif">Redis — In-Memory Data Store</text>
  <rect x="50" y="140" width="160" height="140" rx="12" fill="#3b82f6"/>
  <text x="130" y="185" text-anchor="middle" fill="#fff" font-size="18" font-weight="700" font-family="Segoe UI,Arial,sans-serif">Application</text>
  <text x="130" y="210" text-anchor="middle" fill="#bfdbfe" font-size="11" font-family="Segoe UI,Arial,sans-serif">.NET / Node.js</text>
  <text x="130" y="230" text-anchor="middle" fill="#bfdbfe" font-size="11" font-family="Segoe UI,Arial,sans-serif">Python / Java</text>
  <text x="130" y="250" text-anchor="middle" fill="#bfdbfe" font-size="11" font-family="Segoe UI,Arial,sans-serif">Go / Ruby</text>
  <line x1="210" y1="210" x2="310" y2="210" stroke="#ef4444" stroke-width="3"/>
  <text x="260" y="200" text-anchor="middle" fill="#ef4444" font-size="11" font-weight="600" font-family="Segoe UI,Arial,sans-serif">&lt; 1ms</text>
  <rect x="310" y="100" width="280" height="220" rx="14" fill="#dc2626" fill-opacity="0.12" stroke="#dc2626" stroke-width="2"/>
  <text x="450" y="130" text-anchor="middle" fill="#ef4444" font-size="20" font-weight="700" font-family="Segoe UI,Arial,sans-serif">Redis</text>
  <rect x="330" y="145" width="240" height="30" rx="6" fill="#1e293b"/>
  <text x="450" y="165" text-anchor="middle" fill="#4ade80" font-size="13" font-weight="600" font-family="Segoe UI,Arial,sans-serif">Caching (GET/SET)</text>
  <rect x="330" y="185" width="240" height="30" rx="6" fill="#1e293b"/>
  <text x="450" y="205" text-anchor="middle" fill="#38bdf8" font-size="13" font-weight="600" font-family="Segoe UI,Arial,sans-serif">Session Store</text>
  <rect x="330" y="225" width="240" height="30" rx="6" fill="#1e293b"/>
  <text x="450" y="245" text-anchor="middle" fill="#f59e0b" font-size="13" font-weight="600" font-family="Segoe UI,Arial,sans-serif">Pub/Sub Messaging</text>
  <rect x="330" y="265" width="240" height="30" rx="6" fill="#1e293b"/>
  <text x="450" y="285" text-anchor="middle" fill="#a78bfa" font-size="13" font-weight="600" font-family="Segoe UI,Arial,sans-serif">Rate Limiting</text>
  <line x1="590" y1="210" x2="690" y2="210" stroke="#60a5fa" stroke-width="2" stroke-dasharray="4,4"/>
  <rect x="690" y="170" width="160" height="80" rx="12" fill="#047857"/>
  <text x="770" y="205" text-anchor="middle" fill="#fff" font-size="16" font-weight="700" font-family="Segoe UI,Arial,sans-serif">Database</text>
  <text x="770" y="225" text-anchor="middle" fill="#a7f3d0" font-size="11" font-family="Segoe UI,Arial,sans-serif">PostgreSQL / Mongo</text>
  <rect x="200" y="360" width="500" height="40" rx="8" fill="#1e293b"/>
  <text x="450" y="385" text-anchor="middle" fill="#94a3b8" font-size="13" font-family="Segoe UI,Arial,sans-serif">In-Memory · Strings · Hashes · Lists · Sets · Sorted Sets · Streams</text>
</svg>
