<svg version="1.1" viewBox="-0.5 -0.5 310 191" xmlns="http://www.w3.org/2000/svg" xmlns:xlink="http://www.w3.org/1999/xlink" overflow="hidden"><rect x="0" y="0" width="100%" height="100%" fill="#FFFFFF"/><rect x="7" y="58" rx="6.96" ry="6.96" width="297" height="87" fill="#E6E6E6"/><g stroke="#000000" stroke-miterlimit="10"><path d=" M 32.62 58.64 L 30.9 30" fill="none"/><path d=" M 32.93 63.88 L 30.18 57.04 L 32.62 58.64 L 34.84 56.76 Z"/></g><path d=" M 0 0 L 60 0 L 60 30 L 0 30 Z" fill="none"/><text font-family="helvetica" font-size="16" text-anchor="middle" x="30" y="20">Method</text><path d=" M 56 0 L 116 0 L 116 30 L 56 30 Z" fill="none"/><text font-family="helvetica" font-size="16" text-anchor="middle" x="86" y="20">Path</text><path d=" M 113 0 L 235 0 L 235 30 L 113 30 Z" fill="none"/><text font-family="helvetica" font-size="16" text-anchor="middle" x="174" y="20">Protocol version</text><path d=" M 127 161 L 187 161 L 187 191 L 127 191 Z" fill="none"/><text font-family="helvetica" font-size="16" text-anchor="middle" x="157" y="181">Headers</text><g stroke="#000000" stroke-miterlimit="10"><path d=" M 79.45 58.2 L 83.73 30" fill="none"/><path d=" M 78.67 63.39 L 77.41 56.12 L 79.45 58.2 L 82.02 56.82 Z"/></g><g stroke="#000000" stroke-miterlimit="10"><path d=" M 153.71 58.24 L 166.96 30" fill="none"/><path d=" M 151.48 62.99 L 152.34 55.66 L 153.71 58.24 L 156.56 57.64 Z"/></g><rect x="15" y="65" rx="1.68" ry="1.68" width="36" height="21" fill="#F2FFFC"/><text fill="#333333" font-family="courier new" font-size="16" x="19" y="80">GET</text><rect x="70" y="64.5" rx="1.36" ry="1.36" width="17" height="21" fill="#F5F5FF"/><text fill="#333333" font-family="courier new" font-size="16" x="74" y="80">/</text><rect x="101" y="64" rx="1.76" ry="1.76" width="100" height="22" fill="#F5EBEF"/><text fill="#333333" font-family="courier new" font-size="16" x="105" y="80">HTTP/1.1</text><rect x="15" y="90" rx="3.84" ry="3.84" width="284" height="48" fill="#CFE3F5"/><text fill="#333333" font-family="courier new" font-size="16" x="19" y="119">Host: developer.mozilla.org...</text><g stroke="#000000" stroke-miterlimit="10"><path d=" M 157 144.37 L 157 161" fill="none"/><path d=" M 157 139.12 L 159.33 146.12 L 157 144.37 L 154.67 146.12 Z"/></g></svg>