<svg viewBox="0 0 1000 700" xmlns="http://www.w3.org/2000/svg">
  <title>Integration: All Strategies Working Together</title>
  
  <text x="500" y="35" font-size="26" font-weight="bold" text-anchor="middle" fill="#333">Integration: All Strategies Working Together</text>
  
  <g>
    <rect x="40" y="90" width="150" height="130" fill="#E3F2FD" stroke="#1976D2" stroke-width="2" rx="8"/>
    <text x="115" y="120" font-size="12" font-weight="bold" text-anchor="middle" fill="#1565C0">Development</text>
    <text x="115" y="138" font-size="9" fill="#333">(Brownfield)</text>
    <text x="55" y="160" font-size="8" fill="#333">• Strangler Fig</text>
    <text x="55" y="173" font-size="8" fill="#333">• Microservices</text>
    <text x="55" y="186" font-size="8" fill="#333">• TDD</text>
    <text x="55" y="199" font-size="8" fill="#333">• Code review</text>
    
    <line x1="190" y1="155" x2="225" y2="155" stroke="#333" stroke-width="2" marker-end="url(#arrowhead)"/>
    <text x="207" y="150" font-size="8" fill="#666">Commit</text>
    
    <rect x="225" y="90" width="150" height="130" fill="#F3E5F5" stroke="#7B1FA2" stroke-width="2" rx="8"/>
    <text x="300" y="120" font-size="12" font-weight="bold" text-anchor="middle" fill="#6A1B9A">Testing</text>
    <text x="300" y="138" font-size="9" fill="#333">(Shift Left)</text>
    <text x="240" y="160" font-size="8" fill="#333">• Unit tests</text>
    <text x="240" y="173" font-size="8" fill="#333">• Static analysis</text>
    <text x="240" y="186" font-size="8" fill="#333">• Build verified</text>
    <text x="240" y="199" font-size="8" fill="#333">• Integration tests</text>
    
    <line x1="375" y1="155" x2="410" y2="155" stroke="#333" stroke-width="2" marker-end="url(#arrowhead)"/>
    <text x="392" y="150" font-size="8" fill="#666">Build OK</text>
    
    <rect x="410" y="90" width="150" height="130" fill="#E0F2F1" stroke="#00796B" stroke-width="2" rx="8"/>
    <text x="485" y="120" font-size="12" font-weight="bold" text-anchor="middle" fill="#00695C">Deploy</text>
    <text x="485" y="138" font-size="9" fill="#333">(Canary)</text>
    <text x="425" y="160" font-size="8" fill="#333">• 5% traffic</text>
    <text x="425" y="173" font-size="8" fill="#333">• Monitor metrics</text>
    <text x="425" y="186" font-size="8" fill="#333">• Feature flags</text>
    <text x="425" y="199" font-size="8" fill="#333">• Gradual rollout</text>
    
    <line x1="560" y1="155" x2="595" y2="155" stroke="#333" stroke-width="2" marker-end="url(#arrowhead)"/>
    <text x="577" y="150" font-size="8" fill="#666">50%-100%</text>
    
    <rect x="595" y="90" width="150" height="130" fill="#FCE4EC" stroke="#C2185B" stroke-width="2" rx="8"/>
    <text x="670" y="120" font-size="12" font-weight="bold" text-anchor="middle" fill="#AD1457">Monitor</text>
    <text x="670" y="138" font-size="9" fill="#333">(Shift Right)</text>
    <text x="610" y="160" font-size="8" fill="#333">• Real users</text>
    <text x="610" y="173" font-size="8" fill="#333">• RUM metrics</text>
    <text x="610" y="186" font-size="8" fill="#333">• Alerts active</text>
    <text x="610" y="199" font-size="8" fill="#333">• 24h validation</text>
    
    <line x1="745" y1="155" x2="780" y2="155" stroke="#4CAF50" stroke-width="3" marker-end="url(#arrowhead-green)"/>
    <text x="762" y="150" font-size="8" fill="#4CAF50" font-weight="bold">OK</text>
    
    <rect x="780" y="90" width="150" height="130" fill="#E8F5E9" stroke="#2E7D32" stroke-width="2" rx="8"/>
    <text x="855" y="125" font-size="12" font-weight="bold" text-anchor="middle" fill="#1B5E20">Complete</text>
    <text x="855" y="160" font-size="9" text-anchor="middle" fill="#333">✓ Full rollout</text>
    <text x="855" y="175" font-size="9" text-anchor="middle" fill="#333">✓ Decommission</text>
    <text x="855" y="190" font-size="9" text-anchor="middle" fill="#333">old code</text>
  </g>
  
  <g>
    <line x1="485" y1="220" x2="485" y2="260" stroke="#D32F2F" stroke-width="2" stroke-dasharray="5,5"/>
    <text x="515" y="275" font-size="10" fill="#D32F2F" font-weight="bold">Issues Detected</text>
    
    <path d="M 455 300 Q 350 320 275 300" stroke="#D32F2F" stroke-width="3" fill="none" marker-end="url(#arrowhead-red)"/>
    <text x="380" y="315" font-size="9" fill="#D32F2F" font-weight="bold">ROLLBACK</text>
    
    <rect x="180" y="270" width="170" height="100" fill="#FFEBEE" stroke="#D32F2F" stroke-width="2" rx="6"/>
    <text x="265" y="295" font-size="11" font-weight="bold" text-anchor="middle" fill="#B71C1C">Quick Recovery</text>
    <text x="265" y="315" font-size="9" text-anchor="middle" fill="#333">• Disable feature flag</text>
    <text x="265" y="330" font-size="9" text-anchor="middle" fill="#333">• Instant rollback</text>
    <text x="265" y="345" font-size="9" text-anchor="middle" fill="#333">• Root cause analysis</text>
  </g>
  
  <rect x="40" y="390" width="920" height="280" fill="#F5F5F5" stroke="#BDBDBD" stroke-width="1" rx="6"/>
  
  <text x="50" y="415" font-size="13" font-weight="bold" fill="#333">Essential Infrastructure &amp; Best Practices:</text>
  
  <rect x="50" y="435" width="280" height="220" fill="#FFFFFF" stroke="#E0E0E0" stroke-width="1" rx="4"/>
  <text x="190" y="460" font-size="11" font-weight="bold" text-anchor="middle" fill="#1565C0">Development Setup</text>
  <text x="60" y="485" font-size="9" fill="#333">• Version Control (Git)</text>
  <text x="60" y="502" font-size="9" fill="#333">• Code Review Process</text>
  <text x="60" y="519" font-size="9" fill="#333">• Test Automation (Jest)</text>
  <text x="60" y="536" font-size="9" fill="#333">• Linting (ESLint)</text>
  <text x="60" y="553" font-size="9" fill="#333">• TDD Practice</text>
  <text x="60" y="570" font-size="9" fill="#333">• Local environment setup</text>
  <text x="60" y="587" font-size="9" fill="#333">• Documentation culture</text>
  <text x="60" y="604" font-size="9" fill="#333">• Refactoring discipline</text>
  
  <rect x="360" y="435" width="280" height="220" fill="#FFFFFF" stroke="#E0E0E0" stroke-width="1" rx="4"/>
  <text x="500" y="460" font-size="11" font-weight="bold" text-anchor="middle" fill="#6A1B9A">CI/CD Pipeline</text>
  <text x="370" y="485" font-size="9" fill="#333">• GitHub Actions Workflows</text>
  <text x="370" y="502" font-size="9" fill="#333">• Automated build/test</text>
  <text x="370" y="519" font-size="9" fill="#333">• Docker containerization</text>
  <text x="370" y="536" font-size="9" fill="#333">• Build artifact storage</text>
  <text x="370" y="553" font-size="9" fill="#333">• Automated deployment</text>
  <text x="370" y="570" font-size="9" fill="#333">• Environment parity</text>
  <text x="370" y="587" font-size="9" fill="#333">• Rollback automation</text>
  <text x="370" y="604" font-size="9" fill="#333">• Deployment logs</text>
  
  <rect x="670" y="435" width="280" height="220" fill="#FFFFFF" stroke="#E0E0E0" stroke-width="1" rx="4"/>
  <text x="810" y="460" font-size="11" font-weight="bold" text-anchor="middle" fill="#AD1457">Monitoring &amp; Observability</text>
  <text x="680" y="485" font-size="9" fill="#333">• Feature Flags (LaunchDarkly)</text>
  <text x="680" y="502" font-size="9" fill="#333">• Kubernetes orchestration</text>
  <text x="680" y="519" font-size="9" fill="#333">• Prometheus metrics</text>
  <text x="680" y="536" font-size="9" fill="#333">• Grafana dashboards</text>
  <text x="680" y="553" font-size="9" fill="#333">• ELK logs (Elasticsearch)</text>
  <text x="680" y="570" font-size="9" fill="#333">• PagerDuty alerts</text>
  <text x="680" y="587" font-size="9" fill="#333">• Real User Monitoring</text>
  <text x="680" y="604" font-size="9" fill="#333">• Health checks</text>
  
  <rect x="50" y="680" width="920" height="25" fill="#FFF9C4" stroke="#F57F17" stroke-width="1" rx="3"/>
  <text x="510" y="699" font-size="10" text-anchor="middle" fill="#333" font-weight="bold">Complete Workflow: Brownfield Dev + Strangler Fig → TDD/Code Review → GitHub Actions CI/CD → Canary Deploy 5%→50%→100% → Prometheus+Grafana Monitoring → Rollout Complete</text>
  
  <defs>
    <marker id="arrowhead" markerWidth="10" markerHeight="10" refX="9" refY="3" orient="auto">
      <polygon points="0 0, 10 3, 0 6" fill="#333"/>
    </marker>
    <marker id="arrowhead-green" markerWidth="10" markerHeight="10" refX="9" refY="3" orient="auto">
      <polygon points="0 0, 10 3, 0 6" fill="#4CAF50"/>
    </marker>
    <marker id="arrowhead-red" markerWidth="10" markerHeight="10" refX="9" refY="3" orient="auto">
      <polygon points="0 0, 10 3, 0 6" fill="#D32F2F"/>
    </marker>
  </defs>
</svg>
