<svg viewBox="0 0 1000 650" xmlns="http://www.w3.org/2000/svg">
  <!-- Title -->
  <text x="500" y="35" font-size="24" font-weight="bold" text-anchor="middle" fill="#333">Replatforming & Migration Strategies</text>
  
  <!-- Strategy 1: Lift & Shift -->
  <g>
    <rect x="30" y="70" width="170" height="70" fill="#FCE4EC" stroke="#C2185B" stroke-width="2" rx="6"/>
    <text x="115" y="95" font-size="12" font-weight="bold" text-anchor="middle" fill="#C2185B">1. Lift & Shift</text>
    <text x="115" y="115" font-size="9" text-anchor="middle" fill="#333" font-style="italic">Move as-is</text>
    
    <text x="115" y="175" font-size="10" text-anchor="middle" fill="#333">On-Prem</text>
    <rect x="70" y="195" width="45" height="40" fill="#D32F2F" stroke="#B71C1C" stroke-width="2" rx="2"/>
    <text x="92" y="220" font-size="8" text-anchor="middle" fill="#FFF" font-weight="bold">App</text>
    
    <text x="115" y="265" font-size="11" text-anchor="middle" fill="#666">→</text>
    
    <text x="115" y="300" font-size="10" text-anchor="middle" fill="#333">Cloud VM</text>
    <rect x="70" y="320" width="45" height="40" fill="#FF9800" stroke="#E65100" stroke-width="2" rx="2"/>
    <text x="92" y="345" font-size="8" text-anchor="middle" fill="#FFF" font-weight="bold">App</text>
    
    <text x="115" y="385" font-size="9" font-weight="bold" text-anchor="middle" fill="#333">Effort: Low</text>
    <text x="115" y="402" font-size="9" text-anchor="middle" fill="#666">Speed: Fast</text>
    <text x="115" y="419" font-size="9" text-anchor="middle" fill="#666">Cost: Initial Low</text>
  </g>
  
  <!-- Strategy 2: Replatform -->
  <g>
    <rect x="235" y="70" width="170" height="70" fill="#FCE4EC" stroke="#C2185B" stroke-width="2" rx="6"/>
    <text x="320" y="95" font-size="12" font-weight="bold" text-anchor="middle" fill="#C2185B">2. Replatform</text>
    <text x="320" y="115" font-size="9" text-anchor="middle" fill="#333" font-style="italic">Refactor code</text>
    
    <text x="320" y="175" font-size="10" text-anchor="middle" fill="#333">On-Prem</text>
    <rect x="275" y="195" width="45" height="40" fill="#D32F2F" stroke="#B71C1C" stroke-width="2" rx="2"/>
    <text x="297" y="220" font-size="8" text-anchor="middle" fill="#FFF" font-weight="bold">App</text>
    
    <text x="320" y="265" font-size="11" text-anchor="middle" fill="#666">→</text>
    
    <text x="320" y="300" font-size="10" text-anchor="middle" fill="#333">Cloud Optimized</text>
    <rect x="275" y="320" width="45" height="40" fill="#FF9800" stroke="#E65100" stroke-width="2" rx="2"/>
    <text x="297" y="345" font-size="8" text-anchor="middle" fill="#FFF" font-weight="bold">App</text>
    <text x="320" y="368" font-size="8" text-anchor="middle" fill="#333">(optimized)</text>
    
    <text x="320" y="405" font-size="9" font-weight="bold" text-anchor="middle" fill="#333">Effort: Medium</text>
    <text x="320" y="422" font-size="9" text-anchor="middle" fill="#666">Speed: Medium</text>
    <text x="320" y="439" font-size="9" text-anchor="middle" fill="#666">Cost: Medium</text>
  </g>
  
  <!-- Strategy 3: Refactor/Rebuild -->
  <g>
    <rect x="440" y="70" width="170" height="70" fill="#FCE4EC" stroke="#C2185B" stroke-width="2" rx="6"/>
    <text x="525" y="95" font-size="12" font-weight="bold" text-anchor="middle" fill="#C2185B">3. Refactor/Rebuild</text>
    <text x="525" y="115" font-size="9" text-anchor="middle" fill="#333" font-style="italic">New architecture</text>
    
    <text x="525" y="175" font-size="10" text-anchor="middle" fill="#333">On-Prem</text>
    <rect x="480" y="195" width="45" height="40" fill="#D32F2F" stroke="#B71C1C" stroke-width="2" rx="2"/>
    <text x="502" y="220" font-size="8" text-anchor="middle" fill="#FFF" font-weight="bold">App</text>
    
    <text x="525" y="265" font-size="11" text-anchor="middle" fill="#666">→</text>
    
    <text x="525" y="300" font-size="10" text-anchor="middle" fill="#333">Microservices</text>
    <g>
      <rect x="485" y="320" width="15" height="40" fill="#4CAF50" stroke="#2E7D32" stroke-width="1" rx="1"/>
      <rect x="502" y="320" width="15" height="40" fill="#4CAF50" stroke="#2E7D32" stroke-width="1" rx="1"/>
      <rect x="519" y="320" width="15" height="40" fill="#4CAF50" stroke="#2E7D32" stroke-width="1" rx="1"/>
      <rect x="536" y="320" width="15" height="40" fill="#4CAF50" stroke="#2E7D32" stroke-width="1" rx="1"/>
    </g>
    
    <text x="525" y="385" font-size="9" font-weight="bold" text-anchor="middle" fill="#333">Effort: High</text>
    <text x="525" y="402" font-size="9" text-anchor="middle" fill="#666">Speed: Slow</text>
    <text x="525" y="419" font-size="9" text-anchor="middle" fill="#666">Cost: High</text>
  </g>
  
  <!-- Strategy 4: Replace with SaaS -->
  <g>
    <rect x="645" y="70" width="170" height="70" fill="#FCE4EC" stroke="#C2185B" stroke-width="2" rx="6"/>
    <text x="730" y="95" font-size="12" font-weight="bold" text-anchor="middle" fill="#C2185B">4. Replace SaaS</text>
    <text x="730" y="115" font-size="9" text-anchor="middle" fill="#333" font-style="italic">Buy instead</text>
    
    <text x="730" y="175" font-size="10" text-anchor="middle" fill="#333">On-Prem</text>
    <rect x="685" y="195" width="45" height="40" fill="#D32F2F" stroke="#B71C1C" stroke-width="2" rx="2"/>
    <text x="707" y="220" font-size="8" text-anchor="middle" fill="#FFF" font-weight="bold">App</text>
    
    <text x="730" y="265" font-size="11" text-anchor="middle" fill="#666">→</text>
    
    <text x="730" y="300" font-size="10" text-anchor="middle" fill="#333">SaaS Provider</text>
    <rect x="685" y="320" width="45" height="40" fill="#1976D2" stroke="#0D47A1" stroke-width="2" rx="2"/>
    <text x="707" y="345" font-size="8" text-anchor="middle" fill="#FFF" font-weight="bold">SaaS</text>
    
    <text x="730" y="385" font-size="9" font-weight="bold" text-anchor="middle" fill="#333">Effort: Low</text>
    <text x="730" y="402" font-size="9" text-anchor="middle" fill="#666">Speed: Fast</text>
    <text x="730" y="419" font-size="9" text-anchor="middle" fill="#666">Cost: Recurring</text>
  </g>
  
  <!-- Strategy 5: Retire -->
  <g>
    <rect x="850" y="70" width="170" height="70" fill="#FCE4EC" stroke="#C2185B" stroke-width="2" rx="6"/>
    <text x="935" y="95" font-size="12" font-weight="bold" text-anchor="middle" fill="#C2185B">5. Retire</text>
    <text x="935" y="115" font-size="9" text-anchor="middle" fill="#333" font-style="italic">No longer needed</text>
    
    <text x="935" y="175" font-size="10" text-anchor="middle" fill="#333">On-Prem</text>
    <rect x="890" y="195" width="45" height="40" fill="#D32F2F" stroke="#B71C1C" stroke-width="2" rx="2" opacity="0.5"/>
    <text x="912" y="220" font-size="8" text-anchor="middle" fill="#FFF" font-weight="bold">App</text>
    
    <text x="935" y="265" font-size="14" text-anchor="middle" fill="#666">✗</text>
    
    <text x="935" y="300" font-size="10" text-anchor="middle" fill="#333">Decommissioned</text>
    <rect x="890" y="320" width="45" height="40" fill="#BDBDBD" stroke="#616161" stroke-width="2" rx="2"/>
    <text x="912" y="345" font-size="8" text-anchor="middle" fill="#FFF" font-weight="bold">—</text>
    
    <text x="935" y="385" font-size="9" font-weight="bold" text-anchor="middle" fill="#333">Effort: Low</text>
    <text x="935" y="402" font-size="9" text-anchor="middle" fill="#666">Speed: Fast</text>
    <text x="935" y="419" font-size="9" text-anchor="middle" fill="#666">Cost: Savings</text>
  </g>
  
  <!-- Comparison Table -->
  <rect x="30" y="480" width="940" height="150" fill="#F5F5F5" stroke="#BDBDBD" stroke-width="1" rx="4"/>
  
  <text x="40" y="505" font-size="11" font-weight="bold" fill="#333">Strategy</text>
  <text x="200" y="505" font-size="11" font-weight="bold" fill="#333">Timeline</text>
  <text x="380" y="505" font-size="11" font-weight="bold" fill="#333">Effort</text>
  <text x="560" y="505" font-size="11" font-weight="bold" fill="#333">Cost Impact</text>
  <text x="780" y="505" font-size="11" font-weight="bold" fill="#333">Best For</text>
  
  <!-- Row: Lift & Shift -->
  <text x="40" y="530" font-size="10" fill="#333">Lift & Shift</text>
  <text x="200" y="530" font-size="10" fill="#333">Weeks</text>
  <text x="380" y="530" font-size="10" fill="#FF9800">Low</text>
  <text x="560" y="530" font-size="10" fill="#333">VM running costs</text>
  <text x="780" y="530" font-size="10" fill="#666">Simple apps, quick migration</text>
  
  <!-- Row: Replatform -->
  <text x="40" y="555" font-size="10" fill="#333">Replatform</text>
  <text x="200" y="555" font-size="10" fill="#333">Months</text>
  <text x="380" y="555" font-size="10" fill="#FF9800">Medium</text>
  <text x="560" y="555" font-size="10" fill="#333">Refactoring time</text>
  <text x="780" y="555" font-size="10" fill="#666">Cloud-optimized systems</text>
  
  <!-- Row: Refactor -->
  <text x="40" y="580" font-size="10" fill="#333">Refactor/Rebuild</text>
  <text x="200" y="580" font-size="10" fill="#333">Quarters</text>
  <text x="380" y="580" font-size="10" fill="#D32F2F">High</text>
  <text x="560" y="580" font-size="10" fill="#333">Major rewrite investment</text>
  <text x="780" y="580" font-size="10" fill="#666">Microservices, modern arch</text>
  
  <!-- Row: SaaS -->
  <text x="40" y="605" font-size="10" fill="#333">Replace SaaS</text>
  <text x="200" y="605" font-size="10" fill="#333">Weeks</text>
  <text x="380" y="605" font-size="10" fill="#4CAF50">Very Low</text>
  <text x="560" y="605" font-size="10" fill="#333">Licensing + migration</text>
  <text x="780" y="605" font-size="10" fill="#666">Non-core functions</text>
</svg>
  </g>
  
  <!-- Strategy 3: Refactor/Rebuild -->
  <g>
    <text x="470" y="85" font-size="13" font-weight="bold" text-anchor="middle" fill="#1565C0">Refactor/Rebuild</text>
    <rect x="400" y="110" width="60" height="50" fill="#D32F2F" stroke="#B71C1C" stroke-width="2" rx="3"/>
    <text x="430" y="125" font-size="9" text-anchor="middle" fill="#FFF">Monolith</text>
    <text x="430" y="138" font-size="9" text-anchor="middle" fill="#FFF">On-Prem</text>
    <text x="430" y="165" font-size="10" text-anchor="middle" fill="#666">↓</text>
    <g>
      <rect x="380" y="180" width="20" height="50" fill="#4CAF50" stroke="#2E7D32" stroke-width="1" rx="2"/>
      <rect x="405" y="180" width="20" height="50" fill="#4CAF50" stroke="#2E7D32" stroke-width="1" rx="2"/>
      <rect x="430" y="180" width="20" height="50" fill="#4CAF50" stroke="#2E7D32" stroke-width="1" rx="2"/>
      <rect x="455" y="180" width="20" height="50" fill="#4CAF50" stroke="#2E7D32" stroke-width="1" rx="2"/>
    </g>
    <text x="430" y="245" font-size="9" text-anchor="middle" fill="#333" font-weight="bold">Microservices</text>
    <text x="430" y="270" font-size="9" text-anchor="middle" fill="#999">Major rewrite</text>
    <text x="430" y="285" font-size="9" text-anchor="middle" fill="#999">Maximum benefit</text>
  </g>
  
  <!-- Strategy 4: Replace with SaaS -->
  <g>
    <text x="650" y="85" font-size="13" font-weight="bold" text-anchor="middle" fill="#1565C0">Replace SaaS</text>
    <rect x="590" y="110" width="60" height="50" fill="#D32F2F" stroke="#B71C1C" stroke-width="2" rx="3"/>
    <text x="620" y="125" font-size="9" text-anchor="middle" fill="#FFF">Custom</text>
    <text x="620" y="138" font-size="9" text-anchor="middle" fill="#FFF">App</text>
    <text x="620" y="165" font-size="10" text-anchor="middle" fill="#666">↓</text>
    <rect x="590" y="180" width="60" height="50" fill="#9C27B0" stroke="#6A1B9A" stroke-width="2" rx="3"/>
    <text x="620" y="195" font-size="9" text-anchor="middle" fill="#FFF">SaaS</text>
    <text x="620" y="208" font-size="9" text-anchor="middle" fill="#FFF">Solution</text>
    <text x="620" y="270" font-size="9" text-anchor="middle" fill="#999">No maintenance</text>
    <text x="620" y="285" font-size="9" text-anchor="middle" fill="#999">Fastest path</text>
  </g>
  
  <!-- Strategy 5: Retire -->
  <g>
    <text x="820" y="85" font-size="13" font-weight="bold" text-anchor="middle" fill="#1565C0">Retire</text>
    <rect x="760" y="110" width="60" height="50" fill="#D32F2F" stroke="#B71C1C" stroke-width="2" rx="3"/>
    <text x="790" y="125" font-size="9" text-anchor="middle" fill="#FFF">Legacy</text>
    <text x="790" y="138" font-size="9" text-anchor="middle" fill="#FFF">System</text>
    <text x="790" y="165" font-size="10" text-anchor="middle" fill="#666">↓</text>
    <text x="790" y="210" font-size="20" text-anchor="middle" fill="#999">✕</text>
    <text x="790" y="250" font-size="9" text-anchor="middle" fill="#333" font-weight="bold">Decommission</text>
    <text x="790" y="270" font-size="9" text-anchor="middle" fill="#999">Reduce costs</text>
    <text x="790" y="285" font-size="9" text-anchor="middle" fill="#999">Simplify stack</text>
  </g>
  
  <!-- Comparison table -->
  <text x="450" y="335" font-size="14" font-weight="bold" text-anchor="middle" fill="#333">Quick Comparison</text>
  
  <rect x="50" y="355" width="800" height="120" fill="#F5F5F5" stroke="#BDBDBD" stroke-width="1" rx="4"/>
  
  <!-- Table headers -->
  <text x="110" y="378" font-size="11" font-weight="bold" fill="#333">Strategy</text>
  <text x="220" y="378" font-size="11" font-weight="bold" fill="#333">Timeline</text>
  <text x="340" y="378" font-size="11" font-weight="bold" fill="#333">Cost</text>
  <text x="450" y="378" font-size="11" font-weight="bold" fill="#333">Cloud Benefits</text>
  <text x="620" y="378" font-size="11" font-weight="bold" fill="#333">Best When</text>
  
  <!-- Rows -->
  <text x="110" y="400" font-size="10" fill="#333">Lift & Shift</text>
  <text x="220" y="400" font-size="10" fill="#666">1-2 weeks</text>
  <text x="340" y="400" font-size="10" fill="#666">Low</text>
  <text x="450" y="400" font-size="10" fill="#D32F2F">Limited</text>
  <text x="620" y="400" font-size="10" fill="#666">Quick cloud move</text>
  
  <text x="110" y="420" font-size="10" fill="#333">Replatform</text>
  <text x="220" y="420" font-size="10" fill="#666">1-2 months</text>
  <text x="340" y="420" font-size="10" fill="#666">Medium</text>
  <text x="450" y="420" font-size="10" fill="#FF9800">Moderate</text>
  <text x="620" y="420" font-size="10" fill="#666">Optimization needed</text>
  
  <text x="110" y="440" font-size="10" fill="#333">Refactor</text>
  <text x="220" y="440" font-size="10" fill="#666">3-6 months</text>
  <text x="340" y="440" font-size="10" fill="#666">High</text>
  <text x="450" y="440" font-size="10" fill="#4CAF50">Maximum</text>
  <text x="620" y="440" font-size="10" fill="#666">Full modernization</text>
  
  <text x="110" y="460" font-size="10" fill="#333">Replace SaaS</text>
  <text x="220" y="460" font-size="10" fill="#666">2-4 weeks</text>
  <text x="340" y="460" font-size="10" fill="#666">Low</text>
  <text x="450" y="460" font-size="10" fill="#4CAF50">N/A - managed</text>
  <text x="620" y="460" font-size="10" fill="#666">Non-core function</text>
</svg>
