<svg xmlns="http://www.w3.org/2000/svg" viewBox="0 0 800 420">
  <rect width="800" height="420" rx="12" fill="#0f172a"/>
  <text x="400" y="36" text-anchor="middle" fill="#f1f5f9" font-family="Arial, sans-serif" font-size="20" font-weight="bold">HTML Form Input Types</text>
  <!-- Row 1 -->
  <rect x="30" y="60" width="170" height="72" rx="8" fill="#1e293b" stroke="#3b82f6" stroke-width="1.5"/>
  <text x="115" y="84" text-anchor="middle" fill="#93c5fd" font-family="Arial, sans-serif" font-size="12" font-weight="bold">text</text>
  <rect x="45" y="94" width="140" height="24" rx="4" fill="#0f172a" stroke="#334155" stroke-width="1"/>
  <text x="55" y="110" fill="#94a3b8" font-family="Arial, sans-serif" font-size="10">John Doe</text>
  <rect x="215" y="60" width="170" height="72" rx="8" fill="#1e293b" stroke="#8b5cf6" stroke-width="1.5"/>
  <text x="300" y="84" text-anchor="middle" fill="#c4b5fd" font-family="Arial, sans-serif" font-size="12" font-weight="bold">password</text>
  <rect x="230" y="94" width="140" height="24" rx="4" fill="#0f172a" stroke="#334155" stroke-width="1"/>
  <text x="240" y="110" fill="#94a3b8" font-family="Arial, sans-serif" font-size="10">••••••••</text>
  <rect x="400" y="60" width="170" height="72" rx="8" fill="#1e293b" stroke="#10b981" stroke-width="1.5"/>
  <text x="485" y="84" text-anchor="middle" fill="#6ee7b7" font-family="Arial, sans-serif" font-size="12" font-weight="bold">email</text>
  <rect x="415" y="94" width="140" height="24" rx="4" fill="#0f172a" stroke="#334155" stroke-width="1"/>
  <text x="425" y="110" fill="#94a3b8" font-family="Arial, sans-serif" font-size="10">user@mail.com</text>
  <rect x="585" y="60" width="185" height="72" rx="8" fill="#1e293b" stroke="#f59e0b" stroke-width="1.5"/>
  <text x="678" y="84" text-anchor="middle" fill="#fcd34d" font-family="Arial, sans-serif" font-size="12" font-weight="bold">number</text>
  <rect x="600" y="94" width="140" height="24" rx="4" fill="#0f172a" stroke="#334155" stroke-width="1"/>
  <text x="610" y="110" fill="#94a3b8" font-family="Arial, sans-serif" font-size="10">42</text>
  <!-- Row 2 -->
  <rect x="30" y="150" width="170" height="72" rx="8" fill="#1e293b" stroke="#ef4444" stroke-width="1.5"/>
  <text x="115" y="174" text-anchor="middle" fill="#fca5a5" font-family="Arial, sans-serif" font-size="12" font-weight="bold">checkbox</text>
  <rect x="55" y="186" width="16" height="16" rx="3" fill="#0f172a" stroke="#ef4444" stroke-width="1.5"/>
  <text x="65" y="194" fill="#ef4444" font-family="Arial, sans-serif" font-size="11">✓</text>
  <text x="80" y="198" fill="#94a3b8" font-family="Arial, sans-serif" font-size="11">Option A</text>
  <rect x="130" y="186" width="16" height="16" rx="3" fill="#0f172a" stroke="#334155" stroke-width="1.5"/>
  <text x="152" y="198" fill="#94a3b8" font-family="Arial, sans-serif" font-size="11">B</text>
  <rect x="215" y="150" width="170" height="72" rx="8" fill="#1e293b" stroke="#06b6d4" stroke-width="1.5"/>
  <text x="300" y="174" text-anchor="middle" fill="#67e8f9" font-family="Arial, sans-serif" font-size="12" font-weight="bold">radio</text>
  <circle cx="240" cy="194" r="8" fill="none" stroke="#06b6d4" stroke-width="1.5"/>
  <circle cx="240" cy="194" r="4" fill="#06b6d4"/>
  <text x="255" y="198" fill="#94a3b8" font-family="Arial, sans-serif" font-size="11">Yes</text>
  <circle cx="305" cy="194" r="8" fill="none" stroke="#334155" stroke-width="1.5"/>
  <text x="320" y="198" fill="#94a3b8" font-family="Arial, sans-serif" font-size="11">No</text>
  <rect x="400" y="150" width="170" height="72" rx="8" fill="#1e293b" stroke="#ec4899" stroke-width="1.5"/>
  <text x="485" y="174" text-anchor="middle" fill="#f9a8d4" font-family="Arial, sans-serif" font-size="12" font-weight="bold">date</text>
  <rect x="415" y="186" width="140" height="24" rx="4" fill="#0f172a" stroke="#334155" stroke-width="1"/>
  <text x="425" y="202" fill="#94a3b8" font-family="Arial, sans-serif" font-size="10">2026-03-15</text>
  <rect x="585" y="150" width="185" height="72" rx="8" fill="#1e293b" stroke="#14b8a6" stroke-width="1.5"/>
  <text x="678" y="174" text-anchor="middle" fill="#5eead4" font-family="Arial, sans-serif" font-size="12" font-weight="bold">range</text>
  <line x1="610" y1="196" x2="740" y2="196" stroke="#334155" stroke-width="3" stroke-linecap="round"/>
  <circle cx="680" cy="196" r="8" fill="#14b8a6"/>
  <!-- Row 3 -->
  <rect x="30" y="240" width="170" height="72" rx="8" fill="#1e293b" stroke="#a855f7" stroke-width="1.5"/>
  <text x="115" y="264" text-anchor="middle" fill="#d8b4fe" font-family="Arial, sans-serif" font-size="12" font-weight="bold">select</text>
  <rect x="45" y="276" width="140" height="24" rx="4" fill="#0f172a" stroke="#334155" stroke-width="1"/>
  <text x="55" y="292" fill="#94a3b8" font-family="Arial, sans-serif" font-size="10">Choose option ▾</text>
  <rect x="215" y="240" width="170" height="72" rx="8" fill="#1e293b" stroke="#f97316" stroke-width="1.5"/>
  <text x="300" y="264" text-anchor="middle" fill="#fdba74" font-family="Arial, sans-serif" font-size="12" font-weight="bold">textarea</text>
  <rect x="230" y="274" width="140" height="30" rx="4" fill="#0f172a" stroke="#334155" stroke-width="1"/>
  <text x="238" y="290" fill="#94a3b8" font-family="Arial, sans-serif" font-size="9">Multi-line text...</text>
  <rect x="400" y="240" width="170" height="72" rx="8" fill="#1e293b" stroke="#22c55e" stroke-width="1.5"/>
  <text x="485" y="264" text-anchor="middle" fill="#86efac" font-family="Arial, sans-serif" font-size="12" font-weight="bold">file</text>
  <rect x="415" y="276" width="140" height="24" rx="4" fill="#0f172a" stroke="#334155" stroke-width="1"/>
  <text x="425" y="292" fill="#94a3b8" font-family="Arial, sans-serif" font-size="10">📎 Choose file...</text>
  <rect x="585" y="240" width="185" height="72" rx="8" fill="#1e293b" stroke="#eab308" stroke-width="1.5"/>
  <text x="678" y="264" text-anchor="middle" fill="#fde047" font-family="Arial, sans-serif" font-size="12" font-weight="bold">color</text>
  <rect x="635" y="276" width="30" height="24" rx="4" fill="#3b82f6" stroke="#334155" stroke-width="1"/>
  <rect x="672" y="276" width="30" height="24" rx="4" fill="#ef4444" stroke="#334155" stroke-width="1"/>
  <rect x="709" y="276" width="30" height="24" rx="4" fill="#10b981" stroke="#334155" stroke-width="1"/>
  <!-- Validation -->
  <rect x="30" y="332" width="740" height="72" rx="8" fill="#1e293b" stroke="#3b82f6" stroke-width="1.5"/>
  <text x="400" y="356" text-anchor="middle" fill="#93c5fd" font-family="Arial, sans-serif" font-size="14" font-weight="bold">HTML5 Built-in Validation Attributes</text>
  <text x="120" y="385" text-anchor="middle" fill="#6ee7b7" font-family="monospace" font-size="11">required</text>
  <text x="260" y="385" text-anchor="middle" fill="#fcd34d" font-family="monospace" font-size="11">minlength</text>
  <text x="400" y="385" text-anchor="middle" fill="#c4b5fd" font-family="monospace" font-size="11">pattern</text>
  <text x="530" y="385" text-anchor="middle" fill="#fca5a5" font-family="monospace" font-size="11">min / max</text>
  <text x="670" y="385" text-anchor="middle" fill="#67e8f9" font-family="monospace" font-size="11">placeholder</text>
</svg>