<svg xmlns="http://www.w3.org/2000/svg" viewBox="0 0 800 400">
  <rect width="800" height="400" rx="12" fill="#0f172a"/>
  <text x="400" y="36" text-anchor="middle" fill="#f1f5f9" font-family="Arial, sans-serif" font-size="20" font-weight="bold">Kanban Board</text>
  <!-- Column: To Do -->
  <rect x="20" y="60" width="150" height="310" rx="8" fill="#1e293b" stroke="#3b82f6" stroke-width="1.5"/>
  <rect x="20" y="60" width="150" height="36" rx="8" fill="#3b82f6"/>
  <text x="95" y="83" text-anchor="middle" fill="#fff" font-family="Arial, sans-serif" font-size="13" font-weight="bold">To Do</text>
  <text x="155" y="83" fill="#dbeafe" font-family="Arial, sans-serif" font-size="10">(WIP: 5)</text>
  <rect x="32" y="108" width="126" height="48" rx="5" fill="#1a2744" stroke="#334155" stroke-width="1"/>
  <text x="95" y="130" text-anchor="middle" fill="#e2e8f0" font-family="Arial, sans-serif" font-size="10">Add payment API</text>
  <text x="95" y="146" text-anchor="middle" fill="#64748b" font-family="Arial, sans-serif" font-size="9">Priority: High</text>
  <rect x="32" y="164" width="126" height="48" rx="5" fill="#1a2744" stroke="#334155" stroke-width="1"/>
  <text x="95" y="186" text-anchor="middle" fill="#e2e8f0" font-family="Arial, sans-serif" font-size="10">Fix login bug</text>
  <text x="95" y="202" text-anchor="middle" fill="#64748b" font-family="Arial, sans-serif" font-size="9">Priority: High</text>
  <rect x="32" y="220" width="126" height="48" rx="5" fill="#1a2744" stroke="#334155" stroke-width="1"/>
  <text x="95" y="242" text-anchor="middle" fill="#e2e8f0" font-family="Arial, sans-serif" font-size="10">Update docs</text>
  <text x="95" y="258" text-anchor="middle" fill="#64748b" font-family="Arial, sans-serif" font-size="9">Priority: Low</text>
  <!-- Column: In Progress -->
  <rect x="185" y="60" width="150" height="310" rx="8" fill="#1e293b" stroke="#f59e0b" stroke-width="1.5"/>
  <rect x="185" y="60" width="150" height="36" rx="8" fill="#f59e0b"/>
  <text x="260" y="83" text-anchor="middle" fill="#fff" font-family="Arial, sans-serif" font-size="13" font-weight="bold">In Progress</text>
  <text x="322" y="83" fill="#fef3c7" font-family="Arial, sans-serif" font-size="10">(WIP: 3)</text>
  <rect x="197" y="108" width="126" height="48" rx="5" fill="#1a2744" stroke="#f59e0b" stroke-width="1"/>
  <text x="260" y="130" text-anchor="middle" fill="#fcd34d" font-family="Arial, sans-serif" font-size="10">Build dashboard</text>
  <text x="260" y="146" text-anchor="middle" fill="#64748b" font-family="Arial, sans-serif" font-size="9">Dev: Alice</text>
  <rect x="197" y="164" width="126" height="48" rx="5" fill="#1a2744" stroke="#f59e0b" stroke-width="1"/>
  <text x="260" y="186" text-anchor="middle" fill="#fcd34d" font-family="Arial, sans-serif" font-size="10">Design settings UI</text>
  <text x="260" y="202" text-anchor="middle" fill="#64748b" font-family="Arial, sans-serif" font-size="9">Dev: Bob</text>
  <!-- Column: Code Review -->
  <rect x="350" y="60" width="150" height="310" rx="8" fill="#1e293b" stroke="#8b5cf6" stroke-width="1.5"/>
  <rect x="350" y="60" width="150" height="36" rx="8" fill="#8b5cf6"/>
  <text x="425" y="83" text-anchor="middle" fill="#fff" font-family="Arial, sans-serif" font-size="13" font-weight="bold">Code Review</text>
  <text x="487" y="83" fill="#ede9fe" font-family="Arial, sans-serif" font-size="10">(WIP: 2)</text>
  <rect x="362" y="108" width="126" height="48" rx="5" fill="#1a2744" stroke="#8b5cf6" stroke-width="1"/>
  <text x="425" y="130" text-anchor="middle" fill="#c4b5fd" font-family="Arial, sans-serif" font-size="10">User profile page</text>
  <text x="425" y="146" text-anchor="middle" fill="#64748b" font-family="Arial, sans-serif" font-size="9">Reviewer: Carol</text>
  <!-- Column: Testing -->
  <rect x="515" y="60" width="140" height="310" rx="8" fill="#1e293b" stroke="#10b981" stroke-width="1.5"/>
  <rect x="515" y="60" width="140" height="36" rx="8" fill="#10b981"/>
  <text x="585" y="83" text-anchor="middle" fill="#fff" font-family="Arial, sans-serif" font-size="13" font-weight="bold">Testing</text>
  <text x="641" y="83" fill="#d1fae5" font-family="Arial, sans-serif" font-size="10">(WIP: 2)</text>
  <rect x="527" y="108" width="116" height="48" rx="5" fill="#1a2744" stroke="#10b981" stroke-width="1"/>
  <text x="585" y="130" text-anchor="middle" fill="#6ee7b7" font-family="Arial, sans-serif" font-size="10">Search feature</text>
  <text x="585" y="146" text-anchor="middle" fill="#64748b" font-family="Arial, sans-serif" font-size="9">QA: Dave</text>
  <!-- Column: Done -->
  <rect x="670" y="60" width="110" height="310" rx="8" fill="#1e293b" stroke="#06b6d4" stroke-width="1.5"/>
  <rect x="670" y="60" width="110" height="36" rx="8" fill="#06b6d4"/>
  <text x="725" y="83" text-anchor="middle" fill="#fff" font-family="Arial, sans-serif" font-size="13" font-weight="bold">Done</text>
  <rect x="682" y="108" width="86" height="38" rx="5" fill="#1a2744" stroke="#334155" stroke-width="1"/>
  <text x="725" y="132" text-anchor="middle" fill="#94a3b8" font-family="Arial, sans-serif" font-size="10">Auth flow</text>
  <rect x="682" y="154" width="86" height="38" rx="5" fill="#1a2744" stroke="#334155" stroke-width="1"/>
  <text x="725" y="178" text-anchor="middle" fill="#94a3b8" font-family="Arial, sans-serif" font-size="10">Email API</text>
  <!-- Flow arrows -->
  <text x="400" y="390" text-anchor="middle" fill="#64748b" font-family="Arial, sans-serif" font-size="11" font-style="italic">Cards flow left → right. WIP limits prevent bottlenecks.</text>
</svg>